<svg xmlns="http://www.w3.org/2000/svg" width="1600" height="1080" viewBox="0 0 1600 1080" role="img" aria-labelledby="title desc">
<title id="title">Home AI Operating Layer</title>
<desc id="desc">Readable architecture diagram of the home Hermes setup with access channels, Fedora mini PC control plane, external intelligence services, coding agents, and deployment targets.</desc>
<defs>
  <marker id="arrow-blue" markerWidth="12" markerHeight="9" refX="10" refY="4.5" orient="auto"><path d="M0,0 L12,4.5 L0,9 Z" fill="#2563eb"/></marker>
  <marker id="arrow-green" markerWidth="12" markerHeight="9" refX="10" refY="4.5" orient="auto"><path d="M0,0 L12,4.5 L0,9 Z" fill="#16a34a"/></marker>
  <marker id="arrow-purple" markerWidth="12" markerHeight="9" refX="10" refY="4.5" orient="auto"><path d="M0,0 L12,4.5 L0,9 Z" fill="#7c3aed"/></marker>
  <marker id="arrow-orange" markerWidth="12" markerHeight="9" refX="10" refY="4.5" orient="auto"><path d="M0,0 L12,4.5 L0,9 Z" fill="#ea580c"/></marker>
  <marker id="arrow-gray" markerWidth="12" markerHeight="9" refX="10" refY="4.5" orient="auto"><path d="M0,0 L12,4.5 L0,9 Z" fill="#64748b"/></marker>
  <filter id="shadow" x="-10%" y="-10%" width="120%" height="120%"><feDropShadow dx="0" dy="4" stdDeviation="8" flood-color="#0f172a" flood-opacity="0.14"/></filter>
  <style>
    .title { font: 800 34px Inter, system-ui, -apple-system, BlinkMacSystemFont, 'Segoe UI', sans-serif; fill: #111827; }
    .subtitle { font: 400 17px Inter, system-ui, -apple-system, BlinkMacSystemFont, 'Segoe UI', sans-serif; fill: #4b5563; }
    .section { font: 700 21px Inter, system-ui, -apple-system, BlinkMacSystemFont, 'Segoe UI', sans-serif; fill: #111827; }
    .card-title { font: 700 18px Inter, system-ui, -apple-system, BlinkMacSystemFont, 'Segoe UI', sans-serif; fill: #111827; }
    .card-body { font: 400 15px Inter, system-ui, -apple-system, BlinkMacSystemFont, 'Segoe UI', sans-serif; fill: #374151; }
    .small { font: 600 13px Inter, system-ui, -apple-system, BlinkMacSystemFont, 'Segoe UI', sans-serif; fill: #334155; }
    .caption { font: 500 14px Inter, system-ui, -apple-system, BlinkMacSystemFont, 'Segoe UI', sans-serif; fill: #475569; }
  </style>
</defs>
<rect width="1600" height="1080" fill="#fbfdff"/>
<text x="80" y="70" class="title">Home AI Operating Layer</text>
<text x="80" y="102" class="subtitle">Fedora mini PC running Hermes + Honcho, reachable from Mac and phone, with coding agents and LLM providers behind it.</text>

<rect x="70" y="140" width="360" height="560" rx="24" fill="#f8fafc" stroke="#94a3b8" stroke-width="2" stroke-dasharray="10 9"/>
<text x="98" y="182" class="section" fill="#94a3b8">Access</text>
<rect x="480" y="140" width="600" height="560" rx="24" fill="#eff6ff" stroke="#60a5fa" stroke-width="2" stroke-dasharray="10 9"/>
<text x="508" y="182" class="section" fill="#60a5fa">Home Fedora mini PC</text>
<rect x="1130" y="140" width="390" height="560" rx="24" fill="#fffbeb" stroke="#f59e0b" stroke-width="2" stroke-dasharray="10 9"/>
<text x="1158" y="182" class="section" fill="#f59e0b">External intelligence</text>
<path d="M385,257 C455,257 500,305 570,305" fill="none" stroke="#2563eb" stroke-width="3" stroke-linecap="round" marker-end="url(#arrow-blue)"/>
<path d="M385,387 C455,387 500,335 570,335" fill="none" stroke="#16a34a" stroke-width="3" stroke-linecap="round" marker-end="url(#arrow-green)"/>
<path d="M385,517 C455,517 500,360 570,360" fill="none" stroke="#7c3aed" stroke-width="3" stroke-linecap="round" marker-end="url(#arrow-purple)"/>
<path d="M650,360 L650,420" fill="none" stroke="#16a34a" stroke-width="3" stroke-linecap="round" marker-end="url(#arrow-green)"/>
<path d="M735,360 C790,360 870,420 925,420" fill="none" stroke="#0f766e" stroke-width="3" stroke-linecap="round" marker-end="url(#arrow-green)"/>
<path d="M650,510 L650,565" fill="none" stroke="#7c3aed" stroke-width="3" stroke-linecap="round" marker-end="url(#arrow-purple)"/>
<path d="M925,510 L925,565" fill="none" stroke="#ea580c" stroke-width="3" stroke-linecap="round" marker-end="url(#arrow-orange)"/>
<path d="M900,292 C980,292 1090,257 1170,257" fill="none" stroke="#dc2626" stroke-width="3" stroke-linecap="round" marker-end="url(#arrow-orange)"/>
<path d="M900,325 C980,325 1090,372 1170,372" fill="none" stroke="#ea580c" stroke-width="3" stroke-linecap="round" marker-end="url(#arrow-orange)"/>
<path d="M900,355 C1010,355 1060,515 1170,515" fill="none" stroke="#2563eb" stroke-width="3" stroke-linecap="round" marker-end="url(#arrow-blue)"/>
<path d="M1035,465 C1105,465 1255,515 1325,515" fill="none" stroke="#2563eb" stroke-width="3" stroke-linecap="round" marker-end="url(#arrow-blue)"/>
<path d="M1035,465 C1090,465 1115,652 1170,652" fill="none" stroke="#64748b" stroke-width="3" stroke-linecap="round" marker-end="url(#arrow-gray)"/>
<g id="mac" filter="url(#shadow)">
<rect x="115" y="215" width="270" height="84" rx="18" fill="#ffffff"/>
<rect x="115" y="215" width="270" height="84" rx="18" fill="#dbeafe" stroke="#2563eb" stroke-width="2.5"/>
<text x="137" y="247" class="card-title">MacBook</text>
<text x="137" y="275" class="card-body">RDP / SSH / browser</text>
</g>
<g id="phone" filter="url(#shadow)">
<rect x="115" y="345" width="270" height="84" rx="18" fill="#ffffff"/>
<rect x="115" y="345" width="270" height="84" rx="18" fill="#dcfce7" stroke="#16a34a" stroke-width="2.5"/>
<text x="137" y="377" class="card-title">Phone</text>
<text x="137" y="405" class="card-body">WhatsApp / voice notes</text>
</g>
<g id="webapps" filter="url(#shadow)">
<rect x="115" y="475" width="270" height="84" rx="18" fill="#ffffff"/>
<rect x="115" y="475" width="270" height="84" rx="18" fill="#f3e8ff" stroke="#9333ea" stroke-width="2.5"/>
<text x="137" y="507" class="card-title">Web apps</text>
<text x="137" y="535" class="card-body">SavedTube + dashboards</text>
</g>
<g id="hermes" filter="url(#shadow)">
<rect x="570" y="250" width="330" height="110" rx="18" fill="#ffffff"/>
<rect x="570" y="250" width="330" height="110" rx="18" fill="#dff4ff" stroke="#0284c7" stroke-width="2.5"/>
<text x="592" y="282" class="card-title">Hermes Agent</text>
<text x="592" y="310" class="card-body">orchestrates tools, memory,</text>
<text x="592" y="332" class="card-body">messages, coding delegates</text>
</g>
<g id="gateway" filter="url(#shadow)">
<rect x="535" y="420" width="230" height="90" rx="18" fill="#ffffff"/>
<rect x="535" y="420" width="230" height="90" rx="18" fill="#d1fae5" stroke="#059669" stroke-width="2.5"/>
<text x="557" y="452" class="card-title">Hermes Gateway</text>
<text x="557" y="480" class="card-body">messaging bridge</text>
</g>
<g id="tools" filter="url(#shadow)">
<rect x="815" y="420" width="220" height="90" rx="18" fill="#ffffff"/>
<rect x="815" y="420" width="220" height="90" rx="18" fill="#ccfbf1" stroke="#0f766e" stroke-width="2.5"/>
<text x="837" y="452" class="card-title">CLI tools</text>
<text x="837" y="480" class="card-body">terminal + browser</text>
</g>
<g id="honcho" filter="url(#shadow)">
<rect x="535" y="565" width="230" height="90" rx="18" fill="#ffffff"/>
<rect x="535" y="565" width="230" height="90" rx="18" fill="#ede9fe" stroke="#7c3aed" stroke-width="2.5"/>
<text x="557" y="597" class="card-title">Honcho</text>
<text x="557" y="625" class="card-body">persistent memory</text>
</g>
<g id="obsidian" filter="url(#shadow)">
<rect x="815" y="565" width="220" height="90" rx="18" fill="#ffffff"/>
<rect x="815" y="565" width="220" height="90" rx="18" fill="#fef3c7" stroke="#d97706" stroke-width="2.5"/>
<text x="837" y="597" class="card-title">Obsidian</text>
<text x="837" y="625" class="card-body">notes vault</text>
</g>
<g id="openai" filter="url(#shadow)">
<rect x="1170" y="215" width="290" height="84" rx="18" fill="#ffffff"/>
<rect x="1170" y="215" width="290" height="84" rx="18" fill="#fee2e2" stroke="#dc2626" stroke-width="2.5"/>
<text x="1192" y="247" class="card-title">OpenAI / ChatGPT</text>
<text x="1192" y="275" class="card-body">reasoning + APIs</text>
</g>
<g id="gemini" filter="url(#shadow)">
<rect x="1170" y="330" width="290" height="84" rx="18" fill="#ffffff"/>
<rect x="1170" y="330" width="290" height="84" rx="18" fill="#ffedd5" stroke="#ea580c" stroke-width="2.5"/>
<text x="1192" y="362" class="card-title">Gemini / Google</text>
<text x="1192" y="390" class="card-body">Drive, docs, 2TB plan</text>
</g>
<g id="cursor" filter="url(#shadow)">
<rect x="1170" y="475" width="135" height="84" rx="18" fill="#ffffff"/>
<rect x="1170" y="475" width="135" height="84" rx="18" fill="#dbeafe" stroke="#2563eb" stroke-width="2.5"/>
<text x="1192" y="507" class="card-title">Cursor</text>
<text x="1192" y="535" class="card-body">agent CLI</text>
</g>
<g id="codex" filter="url(#shadow)">
<rect x="1325" y="475" width="135" height="84" rx="18" fill="#ffffff"/>
<rect x="1325" y="475" width="135" height="84" rx="18" fill="#dbeafe" stroke="#2563eb" stroke-width="2.5"/>
<text x="1347" y="507" class="card-title">Codex</text>
<text x="1347" y="535" class="card-body">coding CLI</text>
</g>
<g id="github" filter="url(#shadow)">
<rect x="1170" y="610" width="290" height="84" rx="18" fill="#ffffff"/>
<rect x="1170" y="610" width="290" height="84" rx="18" fill="#e2e8f0" stroke="#64748b" stroke-width="2.5"/>
<text x="1192" y="642" class="card-title">GitHub / Vercel</text>
<text x="1192" y="670" class="card-body">PRs, CI, deploys</text>
</g>
<rect x="422" y="228" width="130" height="24" rx="8" fill="#fbfdff" stroke="#2563eb" stroke-width="1" opacity="0.96"/>
<text x="430" y="245" class="small" fill="#2563eb">remote control</text>
<rect x="424" y="351" width="114" height="24" rx="8" fill="#fbfdff" stroke="#16a34a" stroke-width="1" opacity="0.96"/>
<text x="432" y="368" class="small" fill="#16a34a">voice / text</text>
<rect x="427" y="483" width="114" height="24" rx="8" fill="#fbfdff" stroke="#7c3aed" stroke-width="1" opacity="0.96"/>
<text x="435" y="500" class="small" fill="#7c3aed">product work</text>
<rect x="594" y="381" width="82" height="24" rx="8" fill="#fbfdff" stroke="#16a34a" stroke-width="1" opacity="0.96"/>
<text x="602" y="398" class="small" fill="#16a34a">messages</text>
<rect x="782" y="381" width="98" height="24" rx="8" fill="#fbfdff" stroke="#0f766e" stroke-width="1" opacity="0.96"/>
<text x="790" y="398" class="small" fill="#0f766e">tool calls</text>
<rect x="594" y="531" width="80" height="24" rx="8" fill="#fbfdff" stroke="#7c3aed" stroke-width="1" opacity="0.96"/>
<text x="602" y="548" class="small" fill="#7c3aed">context</text>
<rect x="882" y="531" width="80" height="24" rx="8" fill="#fbfdff" stroke="#ea580c" stroke-width="1" opacity="0.96"/>
<text x="890" y="548" class="small" fill="#ea580c">notes</text>
<rect x="992" y="229" width="90" height="24" rx="8" fill="#fbfdff" stroke="#dc2626" stroke-width="1" opacity="0.96"/>
<text x="1000" y="246" class="small" fill="#dc2626">LLM calls</text>
<rect x="1002" y="333" width="90" height="24" rx="8" fill="#fbfdff" stroke="#ea580c" stroke-width="1" opacity="0.96"/>
<text x="1010" y="350" class="small" fill="#ea580c">workspace</text>
<rect x="1042" y="568" width="114" height="24" rx="8" fill="#fbfdff" stroke="#64748b" stroke-width="1" opacity="0.96"/>
<text x="1050" y="585" class="small" fill="#64748b">ship changes</text>
<g transform="translate(90,745)">
<text x="0" y="0" class="section">Flow legend</text>
<line x1="0" y1="38" x2="54" y2="38" stroke="#2563eb" stroke-width="4" stroke-linecap="round"/>
<text x="70" y="43" class="caption">Access / coding delegation</text>
<line x1="0" y1="72" x2="54" y2="72" stroke="#16a34a" stroke-width="4" stroke-linecap="round"/>
<text x="70" y="77" class="caption">Messages and memory context</text>
<line x1="0" y1="106" x2="54" y2="106" stroke="#ea580c" stroke-width="4" stroke-linecap="round"/>
<text x="70" y="111" class="caption">LLM / workspace integrations</text>
<line x1="0" y1="140" x2="54" y2="140" stroke="#64748b" stroke-width="4" stroke-linecap="round"/>
<text x="70" y="145" class="caption">Shipping path</text>
</g>
<g filter="url(#shadow)"><rect x="430" y="755" width="1090" height="170" rx="22" fill="#ffffff"/><rect x="430" y="755" width="1090" height="170" rx="22" fill="#f8fafc" stroke="#cbd5e1" stroke-width="2"/><text x="470" y="805" class="section">Operating principle</text>
<text x="470" y="845" class="subtitle">Hermes is the local control plane: it listens across channels, reasons with provider models, remembers through Honcho,</text>
<text x="470" y="873" class="subtitle">edits notes and code through tools, and delegates implementation to Cursor or Codex when needed.</text>
<text x="470" y="901" class="subtitle">The Fedora mini PC is the always-on home base; Mac and phone are access surfaces.</text>
</g></svg>
