<svg xmlns="http://www.w3.org/2000/svg" width="1700" height="1180" viewBox="0 0 1700 1180" role="img" aria-labelledby="title desc">
<title id="title">Home AI Operating Layer — Hermes Chat as the Strategic Center</title>
<desc id="desc">Architecture diagram of Alfons' home Hermes setup. Hermes Chat is physically centered inside the Fedora mini PC column, with categories arranged around it: access surfaces on the left, gateway ingress and execution tools above, memory below, and external systems plus web apps on the right.</desc>
<defs>
  <marker id="arrow-blue" markerWidth="12" markerHeight="9" refX="10" refY="4.5" orient="auto"><path d="M0,0 L12,4.5 L0,9 Z" fill="#2563eb"/></marker>
  <marker id="arrow-green" markerWidth="12" markerHeight="9" refX="10" refY="4.5" orient="auto"><path d="M0,0 L12,4.5 L0,9 Z" fill="#16a34a"/></marker>
  <marker id="arrow-purple" markerWidth="12" markerHeight="9" refX="10" refY="4.5" orient="auto"><path d="M0,0 L12,4.5 L0,9 Z" fill="#7c3aed"/></marker>
  <marker id="arrow-orange" markerWidth="12" markerHeight="9" refX="10" refY="4.5" orient="auto"><path d="M0,0 L12,4.5 L0,9 Z" fill="#ea580c"/></marker>
  <marker id="arrow-gray" markerWidth="12" markerHeight="9" refX="10" refY="4.5" orient="auto"><path d="M0,0 L12,4.5 L0,9 Z" fill="#64748b"/></marker>
  <marker id="arrow-red" markerWidth="12" markerHeight="9" refX="10" refY="4.5" orient="auto"><path d="M0,0 L12,4.5 L0,9 Z" fill="#dc2626"/></marker>
  <filter id="shadow" x="-12%" y="-12%" width="124%" height="124%"><feDropShadow dx="0" dy="4" stdDeviation="9" flood-color="#0f172a" flood-opacity="0.14"/></filter>
  <style>
    .title { font: 800 36px Inter, system-ui, -apple-system, BlinkMacSystemFont, 'Segoe UI', sans-serif; fill: #111827; }
    .subtitle { font: 400 17px Inter, system-ui, -apple-system, BlinkMacSystemFont, 'Segoe UI', sans-serif; fill: #4b5563; }
    .machine { font: 600 15px Inter, system-ui, -apple-system, BlinkMacSystemFont, 'Segoe UI', sans-serif; fill: #475569; }
    .section { font: 800 21px Inter, system-ui, -apple-system, BlinkMacSystemFont, 'Segoe UI', sans-serif; fill: #111827; }
    .category { font: 800 14px Inter, system-ui, -apple-system, BlinkMacSystemFont, 'Segoe UI', sans-serif; fill: #475569; letter-spacing: .04em; }
    .card-title { font: 800 18px Inter, system-ui, -apple-system, BlinkMacSystemFont, 'Segoe UI', sans-serif; fill: #111827; }
    .center-title { font: 900 24px Inter, system-ui, -apple-system, BlinkMacSystemFont, 'Segoe UI', sans-serif; fill: #0f172a; }
    .card-body { font: 400 15px Inter, system-ui, -apple-system, BlinkMacSystemFont, 'Segoe UI', sans-serif; fill: #374151; }
    .card-body-strong { font: 800 15px Inter, system-ui, -apple-system, BlinkMacSystemFont, 'Segoe UI', sans-serif; fill: #1f2937; }
    .small { font: 700 13px Inter, system-ui, -apple-system, BlinkMacSystemFont, 'Segoe UI', sans-serif; fill: #334155; }
    .caption { font: 500 14px Inter, system-ui, -apple-system, BlinkMacSystemFont, 'Segoe UI', sans-serif; fill: #475569; }
    .tiny { font: 600 12px Inter, system-ui, -apple-system, BlinkMacSystemFont, 'Segoe UI', sans-serif; fill: #64748b; }
  </style>
</defs>
<rect width="1700" height="1180" fill="#fbfdff"/>
<text x="80" y="66" class="title">Home AI Operating Layer</text>
<text x="80" y="98" class="subtitle">Hermes Chat is the center of the strategy: the conversation surface that coordinates memory, tools, agents, and shipping.</text>
<text x="80" y="126" class="machine">Machine: fedora.home · Fedora Linux 44 · AMD Ryzen 3 3300U · 13Gi RAM · 475G disk · kernel 6.19.10-300.fc44.x86_64</text>

<!-- Main columns -->
<rect x="70" y="165" width="360" height="610" rx="24" fill="#f8fafc" stroke="#94a3b8" stroke-width="2" stroke-dasharray="10 9"/>
<text x="98" y="207" class="section">Access surfaces</text>
<rect x="475" y="165" width="620" height="610" rx="24" fill="#eff6ff" stroke="#60a5fa" stroke-width="2" stroke-dasharray="10 9"/>
<text x="503" y="207" class="section">Home Fedora mini PC</text>
<rect x="1140" y="165" width="485" height="610" rx="24" fill="#fffbeb" stroke="#f59e0b" stroke-width="2" stroke-dasharray="10 9"/>
<text x="1168" y="207" class="section">External systems + web apps</text>

<!-- Category zones inside column 2 -->
<rect x="505" y="225" width="560" height="150" rx="18" fill="#ecfeff" stroke="#67e8f9" stroke-width="1.4" stroke-dasharray="6 7" opacity="0.9"/>
<text x="526" y="252" class="category">INGRESS + EXECUTION</text>
<rect x="505" y="390" width="560" height="160" rx="22" fill="#e0f2fe" stroke="#0284c7" stroke-width="1.8" stroke-dasharray="8 7" opacity="0.95"/>
<text x="526" y="417" class="category">STRATEGIC CENTER</text>
<rect x="505" y="595" width="560" height="140" rx="18" fill="#faf5ff" stroke="#c084fc" stroke-width="1.4" stroke-dasharray="6 7" opacity="0.9"/>
<text x="526" y="622" class="category">MEMORY + CONTEXT</text>

<!-- Connections behind cards -->
<path d="M385,285 C435,285 475,300 545,300" fill="none" stroke="#2563eb" stroke-width="3" stroke-linecap="round" marker-end="url(#arrow-blue)"/>
<path d="M385,425 C455,425 485,302 545,302" fill="none" stroke="#16a34a" stroke-width="3.4" stroke-linecap="round" marker-end="url(#arrow-green)"/>
<path d="M645,340 C675,372 708,395 745,420" fill="none" stroke="#16a34a" stroke-width="3" stroke-linecap="round" marker-end="url(#arrow-green)"/>
<path d="M920,340 C895,360 862,385 825,405" fill="none" stroke="#0f766e" stroke-width="3" stroke-linecap="round" marker-end="url(#arrow-green)"/>
<path d="M745,530 C720,558 700,588 680,615" fill="none" stroke="#7c3aed" stroke-width="3" stroke-linecap="round" marker-end="url(#arrow-purple)"/>
<path d="M825,530 C855,562 902,592 940,615" fill="none" stroke="#ea580c" stroke-width="3" stroke-linecap="round" marker-end="url(#arrow-orange)"/>
<path d="M935,452 C1025,360 1090,278 1190,278" fill="none" stroke="#dc2626" stroke-width="3" stroke-linecap="round" marker-end="url(#arrow-red)"/>
<path d="M935,475 C1045,445 1085,397 1190,397" fill="none" stroke="#2563eb" stroke-width="3" stroke-linecap="round" marker-end="url(#arrow-blue)"/>
<path d="M935,500 C1045,515 1085,548 1190,548" fill="none" stroke="#9333ea" stroke-width="3" stroke-linecap="round" marker-end="url(#arrow-purple)"/>
<path d="M1392,590 L1392,642" fill="none" stroke="#64748b" stroke-width="3" stroke-linecap="round" marker-end="url(#arrow-gray)"/>
<path d="M1320,590 C1280,620 1248,636 1215,650" fill="none" stroke="#64748b" stroke-width="3" stroke-linecap="round" marker-end="url(#arrow-gray)"/>
<path d="M1428,590 C1490,620 1535,640 1568,650" fill="none" stroke="#16a34a" stroke-width="3" stroke-linecap="round" marker-end="url(#arrow-green)"/>
<path d="M1320,692 L1348,692" fill="none" stroke="#64748b" stroke-width="3" stroke-linecap="round" marker-end="url(#arrow-gray)"/>
<path d="M1508,692 L1530,692" fill="none" stroke="#16a34a" stroke-width="3" stroke-linecap="round" marker-end="url(#arrow-green)"/>

<!-- Access cards -->
<g id="mac" filter="url(#shadow)">
  <rect x="115" y="243" width="270" height="84" rx="18" fill="#ffffff"/>
  <rect x="115" y="243" width="270" height="84" rx="18" fill="#dbeafe" stroke="#2563eb" stroke-width="2.5"/>
  <text x="137" y="275" class="card-title">MacBook</text>
  <text x="137" y="303" class="card-body">RDP / SSH / browser</text>
</g>
<g id="phone" filter="url(#shadow)">
  <rect x="115" y="373" width="270" height="104" rx="18" fill="#ffffff"/>
  <rect x="115" y="373" width="270" height="104" rx="18" fill="#dcfce7" stroke="#16a34a" stroke-width="2.5"/>
  <text x="137" y="405" class="card-title">Phone</text>
  <text x="137" y="433" class="card-body">WhatsApp / voice notes</text>
  <text x="137" y="455" class="card-body-strong">enters through Gateway</text>
</g>
<g id="operator" filter="url(#shadow)">
  <rect x="115" y="540" width="270" height="104" rx="18" fill="#ffffff"/>
  <rect x="115" y="540" width="270" height="104" rx="18" fill="#f1f5f9" stroke="#64748b" stroke-width="2.5"/>
  <text x="137" y="572" class="card-title">Alfons</text>
  <text x="137" y="600" class="card-body">strategy, prompts, decisions</text>
  <text x="137" y="622" class="card-body">from any access surface</text>
</g>

<!-- Fedora mini PC cards arranged around the centered Hermes Chat -->
<g id="gateway" filter="url(#shadow)">
  <rect x="545" y="270" width="220" height="82" rx="18" fill="#ffffff"/>
  <rect x="545" y="270" width="220" height="82" rx="18" fill="#d1fae5" stroke="#059669" stroke-width="2.5"/>
  <text x="567" y="302" class="card-title">Hermes Gateway</text>
  <text x="567" y="330" class="card-body">messaging ingress</text>
</g>
<g id="agent" filter="url(#shadow)">
  <rect x="815" y="270" width="220" height="82" rx="18" fill="#ffffff"/>
  <rect x="815" y="270" width="220" height="82" rx="18" fill="#ccfbf1" stroke="#0f766e" stroke-width="2.5"/>
  <text x="837" y="302" class="card-title">Hermes Agent</text>
  <text x="837" y="330" class="card-body">tools, skills, browser</text>
</g>
<g id="hermes-chat" filter="url(#shadow)">
  <rect x="635" y="410" width="300" height="120" rx="24" fill="#ffffff"/>
  <rect x="635" y="410" width="300" height="120" rx="24" fill="#dff4ff" stroke="#0284c7" stroke-width="4.5"/>
  <text x="675" y="448" class="center-title">Hermes Chat</text>
  <text x="677" y="479" class="card-body-strong">CENTER OF THE STRATEGY</text>
  <text x="677" y="505" class="card-body">conversation → intent → action</text>
</g>
<g id="honcho" filter="url(#shadow)">
  <rect x="535" y="635" width="285" height="86" rx="18" fill="#ffffff"/>
  <rect x="535" y="635" width="285" height="86" rx="18" fill="#ede9fe" stroke="#7c3aed" stroke-width="2.5"/>
  <text x="557" y="667" class="card-title">Honcho</text>
  <text x="557" y="695" class="card-body-strong">agent memory + recall</text>
</g>
<g id="obsidian" filter="url(#shadow)">
  <rect x="850" y="635" width="220" height="86" rx="18" fill="#ffffff"/>
  <rect x="850" y="635" width="220" height="86" rx="18" fill="#fef3c7" stroke="#d97706" stroke-width="2.5"/>
  <text x="872" y="667" class="card-title">Obsidian</text>
  <text x="872" y="695" class="card-body-strong">external memory</text>
</g>

<!-- External systems cards arranged by category -->
<text x="1190" y="244" class="category">MODELS + WORKSPACE</text>
<g id="openai" filter="url(#shadow)">
  <rect x="1190" y="260" width="185" height="84" rx="18" fill="#ffffff"/>
  <rect x="1190" y="260" width="185" height="84" rx="18" fill="#fee2e2" stroke="#dc2626" stroke-width="2.5"/>
  <text x="1212" y="292" class="card-title">OpenAI</text>
  <text x="1212" y="320" class="card-body">reasoning APIs</text>
</g>
<g id="gemini" filter="url(#shadow)">
  <rect x="1410" y="260" width="185" height="84" rx="18" fill="#ffffff"/>
  <rect x="1410" y="260" width="185" height="84" rx="18" fill="#ffedd5" stroke="#ea580c" stroke-width="2.5"/>
  <text x="1432" y="292" class="card-title">Gemini</text>
  <text x="1432" y="320" class="card-body">Google workspace</text>
</g>
<text x="1190" y="386" class="category">CODING DELEGATION</text>
<g id="coding" filter="url(#shadow)">
  <rect x="1190" y="405" width="405" height="84" rx="18" fill="#ffffff"/>
  <rect x="1190" y="405" width="405" height="84" rx="18" fill="#dbeafe" stroke="#2563eb" stroke-width="2.5"/>
  <text x="1212" y="437" class="card-title">Cursor Agent CLI + Codex CLI</text>
  <text x="1212" y="465" class="card-body">implementation delegates</text>
</g>
<text x="1190" y="530" class="category">WEB APPS + SHIPPING</text>
<g id="webapps" filter="url(#shadow)">
  <rect x="1190" y="548" width="405" height="84" rx="18" fill="#ffffff"/>
  <rect x="1190" y="548" width="405" height="84" rx="18" fill="#f3e8ff" stroke="#9333ea" stroke-width="2.5"/>
  <text x="1212" y="580" class="card-title">Web apps</text>
  <text x="1212" y="608" class="card-body">SavedTube + dashboards + product UI</text>
</g>
<g id="github" filter="url(#shadow)">
  <rect x="1165" y="650" width="160" height="84" rx="18" fill="#ffffff"/>
  <rect x="1165" y="650" width="160" height="84" rx="18" fill="#e2e8f0" stroke="#64748b" stroke-width="2.5"/>
  <text x="1187" y="682" class="card-title">GitHub</text>
  <text x="1187" y="710" class="card-body">source + PRs</text>
</g>
<g id="vercel" filter="url(#shadow)">
  <rect x="1348" y="650" width="160" height="84" rx="18" fill="#ffffff"/>
  <rect x="1348" y="650" width="160" height="84" rx="18" fill="#e0f2fe" stroke="#0284c7" stroke-width="2.5"/>
  <text x="1370" y="682" class="card-title">Vercel</text>
  <text x="1370" y="710" class="card-body">deploys</text>
</g>
<g id="supabase" filter="url(#shadow)">
  <rect x="1530" y="650" width="80" height="84" rx="18" fill="#ffffff"/>
  <rect x="1530" y="650" width="80" height="84" rx="18" fill="#dcfce7" stroke="#16a34a" stroke-width="2.5"/>
  <text x="1544" y="682" class="card-title">DB</text>
  <text x="1543" y="710" class="tiny">Supabase</text>
</g>

<!-- Compact flow labels -->
<rect x="430" y="255" width="128" height="24" rx="8" fill="#fbfdff" stroke="#2563eb" stroke-width="1" opacity="0.96"/>
<text x="438" y="272" class="small" fill="#2563eb">remote control</text>
<rect x="416" y="350" width="146" height="24" rx="8" fill="#fbfdff" stroke="#16a34a" stroke-width="1" opacity="0.96"/>
<text x="424" y="367" class="small" fill="#16a34a">phone → gateway</text>
<rect x="640" y="374" width="118" height="24" rx="8" fill="#fbfdff" stroke="#16a34a" stroke-width="1" opacity="0.96"/>
<text x="648" y="391" class="small" fill="#16a34a">chat ingress</text>
<rect x="840" y="374" width="92" height="24" rx="8" fill="#fbfdff" stroke="#0f766e" stroke-width="1" opacity="0.96"/>
<text x="848" y="391" class="small" fill="#0f766e">tool use</text>
<rect x="692" y="558" width="98" height="24" rx="8" fill="#fbfdff" stroke="#7c3aed" stroke-width="1" opacity="0.96"/>
<text x="700" y="575" class="small" fill="#7c3aed">memory</text>
<rect x="880" y="558" width="132" height="24" rx="8" fill="#fbfdff" stroke="#ea580c" stroke-width="1" opacity="0.96"/>
<text x="888" y="575" class="small" fill="#ea580c">notes memory</text>
<rect x="1038" y="324" width="82" height="24" rx="8" fill="#fbfdff" stroke="#dc2626" stroke-width="1" opacity="0.96"/>
<text x="1046" y="341" class="small" fill="#dc2626">LLMs</text>
<rect x="1038" y="500" width="130" height="24" rx="8" fill="#fbfdff" stroke="#9333ea" stroke-width="1" opacity="0.96"/>
<text x="1046" y="517" class="small" fill="#9333ea">product work</text>
<rect x="1334" y="626" width="118" height="24" rx="8" fill="#fbfdff" stroke="#64748b" stroke-width="1" opacity="0.96"/>
<text x="1342" y="643" class="small" fill="#64748b">ship path</text>

<!-- Legend and operating notes -->
<g transform="translate(90,830)">
  <text x="0" y="0" class="section">Flow legend</text>
  <line x1="0" y1="38" x2="54" y2="38" stroke="#2563eb" stroke-width="4" stroke-linecap="round"/>
  <text x="70" y="43" class="caption">Access / coding delegation</text>
  <line x1="0" y1="72" x2="54" y2="72" stroke="#16a34a" stroke-width="4" stroke-linecap="round"/>
  <text x="70" y="77" class="caption">Phone and messaging ingress through Hermes Gateway</text>
  <line x1="0" y1="106" x2="54" y2="106" stroke="#7c3aed" stroke-width="4" stroke-linecap="round"/>
  <text x="70" y="111" class="caption">Agent memory and durable context</text>
  <line x1="0" y1="140" x2="54" y2="140" stroke="#ea580c" stroke-width="4" stroke-linecap="round"/>
  <text x="70" y="145" class="caption">Workspace / notes integrations</text>
  <line x1="0" y1="174" x2="54" y2="174" stroke="#64748b" stroke-width="4" stroke-linecap="round"/>
  <text x="70" y="179" class="caption">Web-app shipping path</text>
</g>
<g filter="url(#shadow)">
  <rect x="560" y="828" width="1065" height="245" rx="22" fill="#ffffff"/>
  <rect x="560" y="828" width="1065" height="245" rx="22" fill="#f8fafc" stroke="#cbd5e1" stroke-width="2"/>
  <text x="600" y="878" class="section">Operating principle</text>
  <text x="600" y="918" class="subtitle">The Hermes Chat shape is physically centered in the Fedora box: conversation is the strategic control point.</text>
  <text x="600" y="950" class="subtitle">Around it by category: Gateway and Agent above, memory/context below, external services to the right.</text>
  <text x="600" y="982" class="subtitle">Hermes Gateway is not memory; it is messaging ingress. Phone/WhatsApp reaches Gateway first, then Chat.</text>
  <text x="600" y="1014" class="subtitle">Honcho is agent memory for recall and profile context. Obsidian is external memory as human notes.</text>
  <text x="600" y="1046" class="subtitle">Web apps sit outside the machine with GitHub source/PRs, Vercel deploys, and Supabase data.</text>
</g>
</svg>
